<?xml version="1.0" encoding="iso-8859-1"?>
<!-- Generator: Adobe Illustrator 16.0.0, SVG Export Plug-In . SVG Version: 6.00 Build 0)  -->
<!DOCTYPE svg PUBLIC "-//W3C//DTD SVG 1.1//EN" "http://www.w3.org/Graphics/SVG/1.1/DTD/svg11.dtd">
<svg version="1.1" id="Capa_1" xmlns="http://www.w3.org/2000/svg" xmlns:xlink="http://www.w3.org/1999/xlink" x="0px" y="0px"
	 width="85.099px" height="85.099px" viewBox="0 0 85.099 85.099" style="enable-background:new 0 0 85.099 85.099;"
	 xml:space="preserve">
<g>
	<g>
		<path d="M41.081,85.099c-0.051,0-0.102-0.002-0.152-0.008l-5.304-0.536c-0.823-0.083-1.424-0.818-1.341-1.643l0.881-8.727
			c-0.761-0.106-1.496-0.236-2.199-0.389c-2.4-0.519-4.485-1.326-6.198-2.396c-1.773-1.108-3.17-2.509-4.147-4.161
			c-0.994-1.674-1.498-3.64-1.498-5.839c0-1.692,0.295-3.152,0.877-4.34c0.577-1.175,1.307-2.128,2.169-2.836
			c0.854-0.698,1.792-1.2,2.79-1.489c0.938-0.271,1.809-0.409,2.592-0.409c0.828,0,1.5,0.671,1.5,1.5
			c0,1.816,0.186,3.526,0.552,5.081c0.345,1.479,0.929,2.787,1.736,3.89c0.713,0.973,1.611,1.744,2.74,2.35l1.881-18.61
			c-2.281-1.044-4.313-2.061-6.05-3.026c-2.207-1.225-4.063-2.583-5.516-4.037c-1.501-1.502-2.644-3.238-3.396-5.159
			c-0.745-1.901-1.123-4.172-1.123-6.751c0-2.735,0.552-5.205,1.639-7.341c1.092-2.141,2.666-3.957,4.681-5.399
			c1.966-1.407,4.333-2.487,7.037-3.21c1.917-0.513,4.049-0.841,6.354-0.98l0.937-9.283c0.04-0.396,0.235-0.76,0.544-1.012
			c0.308-0.251,0.703-0.371,1.099-0.33l5.304,0.536c0.824,0.083,1.425,0.819,1.343,1.643l-0.896,8.874
			c0.534,0.101,1.034,0.213,1.506,0.339c2.155,0.579,4.005,1.379,5.495,2.379c1.555,1.042,2.746,2.302,3.54,3.745
			c0.801,1.455,1.207,3.008,1.207,4.617c0,2.448-0.869,4.446-2.582,5.938c-1.656,1.439-3.968,2.168-6.868,2.168
			c-0.828,0-1.5-0.671-1.5-1.5c0-3.209-0.615-5.725-1.83-7.482l-1.541,15.261c2.605,1.122,4.885,2.237,6.796,3.324
			c2.192,1.247,4.031,2.638,5.47,4.132c1.481,1.542,2.594,3.308,3.307,5.25c0.703,1.906,1.061,4.124,1.061,6.585
			c0,3.078-0.576,5.828-1.709,8.173c-1.139,2.354-2.769,4.351-4.845,5.937c-2.044,1.563-4.522,2.742-7.369,3.506
			c-1.976,0.53-4.171,0.873-6.54,1.023l-0.94,9.296C42.492,84.523,41.841,85.099,41.081,85.099z M37.419,81.722l2.317,0.234
			l0.92-9.089c0.075-0.748,0.692-1.324,1.443-1.349c2.646-0.087,5.061-0.418,7.174-0.984c2.465-0.662,4.594-1.669,6.325-2.993
			c1.699-1.298,3.033-2.933,3.966-4.859c0.936-1.933,1.408-4.242,1.408-6.865c0-2.106-0.295-3.975-0.875-5.551
			c-0.568-1.551-1.462-2.966-2.652-4.206c-1.237-1.285-2.85-2.499-4.791-3.603c-2.013-1.146-4.471-2.329-7.306-3.521l-0.128-0.053
			c-0.605-0.256-1.041-0.906-0.975-1.561l1.945-19.271c0.051-0.501,0.351-0.944,0.797-1.178c0.444-0.233,0.979-0.228,1.422,0.016
			c1.082,0.598,1.998,1.394,2.724,2.366c1.479,1.984,2.328,4.64,2.531,7.909c1.458-0.174,2.612-0.626,3.446-1.351
			c1.043-0.909,1.552-2.111,1.552-3.675c0-1.113-0.273-2.149-0.835-3.17c-0.561-1.018-1.43-1.927-2.584-2.7
			c-1.217-0.817-2.764-1.479-4.6-1.973c-0.744-0.199-1.584-0.36-2.566-0.494c-0.801-0.108-1.371-0.833-1.29-1.637l0.887-8.789
			l-2.319-0.235l-0.916,9.083c-0.076,0.75-0.697,1.327-1.45,1.349c-2.582,0.073-4.933,0.389-6.984,0.938
			c-2.354,0.63-4.396,1.556-6.066,2.752c-1.62,1.16-2.883,2.614-3.754,4.321c-0.87,1.71-1.312,3.722-1.312,5.979
			c0,2.203,0.309,4.105,0.916,5.656c0.602,1.534,1.518,2.925,2.726,4.133c1.255,1.255,2.888,2.445,4.851,3.535
			c1.909,1.062,4.199,2.191,6.806,3.357c0.591,0.264,0.945,0.876,0.88,1.52l-2.188,21.65c-0.045,0.442-0.283,0.841-0.65,1.091
			c-0.368,0.249-0.829,0.322-1.255,0.2c-0.717-0.205-1.29-0.417-1.805-0.666c-1.737-0.836-3.163-2.005-4.236-3.471
			c-1.048-1.432-1.801-3.106-2.237-4.978c-0.3-1.274-0.494-2.635-0.58-4.059c-0.102,0.025-0.204,0.054-0.309,0.084
			c-0.614,0.178-1.178,0.48-1.722,0.928c-0.528,0.433-0.992,1.051-1.378,1.837c-0.378,0.771-0.57,1.787-0.57,3.019
			c0,1.652,0.363,3.103,1.079,4.31c0.731,1.237,1.794,2.295,3.157,3.146c1.418,0.888,3.181,1.562,5.241,2.008
			c1.042,0.225,2.17,0.397,3.352,0.513c0.396,0.039,0.762,0.234,1.015,0.542s0.372,0.705,0.332,1.102L37.419,81.722z M42.68,69.253
			c-0.408,0-0.8-0.167-1.084-0.463c-0.303-0.317-0.452-0.751-0.408-1.188l2.002-19.817c0.049-0.485,0.331-0.917,0.756-1.156
			c0.427-0.239,0.941-0.256,1.381-0.047c0.707,0.336,1.382,0.664,1.984,0.972c1.879,0.959,3.334,1.882,4.446,2.82
			c1.2,1.01,2.063,2.133,2.563,3.335c0.488,1.163,0.734,2.542,0.734,4.096c0,1.668-0.312,3.233-0.93,4.653
			c-0.628,1.44-1.549,2.687-2.734,3.708c-1.164,1.003-2.613,1.788-4.305,2.332c-1.273,0.41-2.729,0.664-4.323,0.754
			C42.736,69.252,42.708,69.253,42.68,69.253z M45.958,50.229l-1.601,15.838c0.65-0.105,1.256-0.248,1.812-0.428
			c1.309-0.42,2.406-1.009,3.268-1.75c0.854-0.734,1.488-1.595,1.939-2.631c0.451-1.039,0.681-2.202,0.681-3.456
			c0-1.153-0.169-2.143-0.502-2.938c-0.315-0.759-0.897-1.498-1.729-2.198C48.902,51.889,47.603,51.07,45.958,50.229z
			 M40.604,36.766c-0.21,0-0.421-0.044-0.618-0.133c-0.375-0.169-0.67-0.303-0.944-0.431c-1.831-0.848-3.359-1.75-4.539-2.678
			c-1.265-0.996-2.21-2.118-2.809-3.337c-0.601-1.221-0.905-2.663-0.905-4.287c0-1.461,0.229-2.828,0.683-4.062
			c0.473-1.29,1.226-2.424,2.236-3.371c0.998-0.935,2.279-1.661,3.81-2.158c1.367-0.443,3.016-0.681,4.901-0.708
			c0.411,0.006,0.837,0.171,1.126,0.486s0.43,0.739,0.387,1.165l-1.835,18.165c-0.048,0.48-0.325,0.908-0.743,1.149
			C41.122,36.699,40.862,36.766,40.604,36.766z M40.771,18.697c-0.874,0.091-1.653,0.247-2.326,0.465
			c-1.107,0.36-2.011,0.863-2.686,1.494c-0.675,0.633-1.156,1.357-1.471,2.215c-0.331,0.902-0.499,1.921-0.499,3.028
			c0,1.16,0.201,2.157,0.598,2.963c0.399,0.813,1.063,1.588,1.972,2.303c0.788,0.62,1.783,1.237,2.967,1.839L40.771,18.697z"/>
	</g>
</g>
<g>
</g>
<g>
</g>
<g>
</g>
<g>
</g>
<g>
</g>
<g>
</g>
<g>
</g>
<g>
</g>
<g>
</g>
<g>
</g>
<g>
</g>
<g>
</g>
<g>
</g>
<g>
</g>
<g>
</g>
</svg>
